<svg xmlns="http://www.w3.org/2000/svg" width="157" height="57" viewBox="0 0 157 57">
  <g id="InEvent_Logo_Registered_Black" data-name="InEvent Logo Registered Black" transform="translate(3443.141 -21572.907)">
    <g id="LOGO" transform="translate(-3443.142 21572.906)">
      <g id="Grupo_5" data-name="Grupo 5" transform="translate(0 0)">
        <path id="Caminho_54" data-name="Caminho 54" d="M261.992,385.772c-.972-.509-1.018-1.11-.509-1.988,3.146-5.411,6.242-10.776,9.527-16.463,2.081,1.2,4.162,2.359,6.15,3.654.231.139.323,1.018.139,1.387-3.146,5.5-6.292,11.007-9.572,16.7-2.038-1.157-3.841-2.266-5.736-3.284ZM268.16,353.6a4.241,4.241,0,0,0-1.545.312,4.894,4.894,0,0,0-1.9,2.173c-.565.974-1.13,1.949-1.71,2.914l-13.172,22.8c-.624,1.041-1.244,2.087-1.852,3.146-1.618,2.865-1.02,4.9,1.708,6.473,10.681,6.151,21.362,12.345,32.042,18.452a4.606,4.606,0,0,0,2.285.731,3.6,3.6,0,0,0,2.986-2.027c.37-.552.694-1.153,1.018-1.708,1.064-1.9,1.064-2.037-.878-3.147-8.461-4.856-16.876-9.759-25.338-14.614-1.8-1.017-3.56-2.081-5.5-3.191l13.319-23.03c11.051,6.335,21.916,12.625,32.874,18.961.647-1.11,1.249-2.081,1.85-3.1,1.3-2.358.74-4.532-1.618-5.873q-16.417-9.6-32.923-18.96a4.235,4.235,0,0,0-1.545-.312Zm127.133,34.119V390.4a9.168,9.168,0,0,1-2.866.37,3.842,3.842,0,0,1-2.867-1.064,4.257,4.257,0,0,1-1.018-2.96v-6.336h-1.433v-2.312h1.433v-2.543l2.914-1.063V378.1h3.422v2.312h-3.422v5.411a3.286,3.286,0,0,0,.416,1.9,1.762,1.762,0,0,0,1.48.554,3.647,3.647,0,0,0,1.942-.554Zm-81.1,2.777V373.517H317.2v16.972l-3.007,0Zm14.334,0V383.32a3.463,3.463,0,0,0-.6-2.312,2.4,2.4,0,0,0-1.988-.74,3.528,3.528,0,0,0-2.45,1.249v8.972h-2.913V378.094h2.081l.555,1.156a4.3,4.3,0,0,1,3.468-1.382,4.56,4.56,0,0,1,3.466,1.337,5.216,5.216,0,0,1,1.295,3.7v7.585l-2.911,0Zm6.2,0V373.517h10.819V376.2h-7.814v3.977h5.594v2.547h-5.594v5.087H345.4v2.682Zm47.393,0V383.32a3.464,3.464,0,0,0-.6-2.312,2.4,2.4,0,0,0-1.988-.74,3.532,3.532,0,0,0-2.45,1.249v8.972h-2.913V378.094h2.08l.556,1.156a4.293,4.293,0,0,1,3.467-1.382,4.558,4.558,0,0,1,3.468,1.341,5.213,5.213,0,0,1,1.294,3.7v7.585Zm-30.008.231L346.513,378.1H349.7l2.958,7.584,3.187-7.588h3.056l-5.734,12.629ZM362.835,383h6.1a2.721,2.721,0,0,0-2.7-2.744,2.885,2.885,0,0,0-.307.015c-1.665,0-2.682.922-3.1,2.724v0Zm-1.479,6.1a6.227,6.227,0,0,1-1.665-4.624,6.562,6.562,0,0,1,1.8-4.765,5.9,5.9,0,0,1,4.346-1.8,6.006,6.006,0,0,1,4.346,1.618,5.436,5.436,0,0,1,1.618,4.115,6.288,6.288,0,0,1-.231,1.528h-8.831a3.27,3.27,0,0,0,1.018,2.312,3.743,3.743,0,0,0,2.543.833,4.017,4.017,0,0,0,3.006-1.018l1.109,2.219a7.114,7.114,0,0,1-4.578,1.249,6.035,6.035,0,0,1-4.484-1.664Zm-76.708,9.613v.006c1.942,1.244,3.931,2.309,6.054,3.509,3.236-5.642,6.471-11.192,9.617-16.741a1.54,1.54,0,0,0-.416-1.434c-1.9-1.248-3.931-2.359-6.011-3.56-1.7,2.9-3.306,5.629-4.912,8.351l-1.007-6.132c-.185-1.522-.416-3.05-.6-4.578a2.251,2.251,0,0,0-.74-1.665c-1.942-1.3-3.976-2.405-6.057-3.608-.971,1.711-1.85,3.189-2.728,4.717L271.188,389.1c-.416.74-.832,1.48.231,2.081,1.942,1.064,3.884,2.22,5.919,3.376,1.619-2.82,3.237-5.549,4.809-8.278l1.018,5.5c.081.5.539,3.5.719,4.73.023.165.047.33.071.5a4.4,4.4,0,0,0,.222.967A1.44,1.44,0,0,0,284.648,398.718Z" transform="translate(-247.094 -353.596)" fill-rule="evenodd"/>
      </g>
      <path id="Caminho_55" data-name="Caminho 55" d="M289.877,416l-13.122,22.61-.178.3,9.557,5.487h0c-.945-.551-1.908-1.115-2.921-1.692l13.3-22.891Z" transform="translate(-274.018 -410.58)" fill="#0069a9" fill-rule="evenodd"/>
      <path id="Caminho_56" data-name="Caminho 56" d="M651.991,646.7l4.972-8.414-1-6.095c-.185-1.513-.416-3.032-.6-4.551a4.3,4.3,0,0,0-.114-.655l-5.1,8.745,1.016,5.471c.081.495.539,3.483.718,4.7l.071.492C651.956,646.5,651.972,646.6,651.991,646.7Z" transform="translate(-615.086 -603.023)" fill="#0069a9" fill-rule="evenodd"/>
    </g>
    <path id="Caminho_89173" data-name="Caminho 89173" d="M-26.666-55.654a1.374,1.374,0,0,0,.338-.034.473.473,0,0,0,.2-.1.352.352,0,0,0,.1-.168.847.847,0,0,0,.028-.228.886.886,0,0,0-.024-.218.316.316,0,0,0-.09-.156.411.411,0,0,0-.182-.092,1.231,1.231,0,0,0-.3-.03h-.428v1.027Zm.076-1.675a1.8,1.8,0,0,1,1.1.268.911.911,0,0,1,.348.768,1.065,1.065,0,0,1-.184.622,1.038,1.038,0,0,1-.572.386.6.6,0,0,1,.15.134,1.226,1.226,0,0,1,.118.182l.724,1.227h-.82a.262.262,0,0,1-.252-.132l-.576-1.051a.3.3,0,0,0-.09-.086.3.3,0,0,0-.15-.03h-.22v1.3h-.859v-3.586Zm.016,4.277a2.389,2.389,0,0,0,.652-.088,2.429,2.429,0,0,0,.582-.248,2.443,2.443,0,0,0,.492-.384,2.347,2.347,0,0,0,.378-.5,2.567,2.567,0,0,0,.242-.592,2.516,2.516,0,0,0,.086-.664,2.561,2.561,0,0,0-.086-.668,2.589,2.589,0,0,0-.242-.6,2.372,2.372,0,0,0-.378-.5,2.463,2.463,0,0,0-.492-.388,2.381,2.381,0,0,0-.582-.25,2.389,2.389,0,0,0-.652-.088,2.346,2.346,0,0,0-.648.088,2.361,2.361,0,0,0-.576.25,2.39,2.39,0,0,0-.486.388,2.447,2.447,0,0,0-.374.5,2.526,2.526,0,0,0-.24.6,2.619,2.619,0,0,0-.084.668,2.528,2.528,0,0,0,.186.971,2.459,2.459,0,0,0,.51.786,2.375,2.375,0,0,0,.764.526A2.343,2.343,0,0,0-26.574-53.051Zm0-5.429a2.9,2.9,0,0,1,.786.106,2.986,2.986,0,0,1,.706.3,2.949,2.949,0,0,1,.6.462,2.948,2.948,0,0,1,.462.6,2.986,2.986,0,0,1,.3.706,2.9,2.9,0,0,1,.106.786,2.881,2.881,0,0,1-.106.782,2.948,2.948,0,0,1-.3.7,2.973,2.973,0,0,1-.462.6,2.948,2.948,0,0,1-.6.462,2.986,2.986,0,0,1-.706.3,2.9,2.9,0,0,1-.786.106,2.874,2.874,0,0,1-.784-.106,2.957,2.957,0,0,1-.7-.3,2.973,2.973,0,0,1-.6-.462,2.973,2.973,0,0,1-.462-.6,2.957,2.957,0,0,1-.3-.7,2.874,2.874,0,0,1-.106-.784,2.9,2.9,0,0,1,.106-.786,2.986,2.986,0,0,1,.3-.706,2.948,2.948,0,0,1,.462-.6,2.973,2.973,0,0,1,.6-.462,2.957,2.957,0,0,1,.7-.3A2.874,2.874,0,0,1-26.574-58.48Z" transform="translate(-3262.522 21652.291)"/>
  </g>
</svg>
